<svg viewBox="0 0 1080 147" fill="none" xmlns="http://www.w3.org/2000/svg">
<path fill-rule="evenodd" clip-rule="evenodd" d="M0 18.1622L26 27.2432C51 36.8919 103 55.0541 154 52.2162C206 48.8108 257 24.4054 309 27.2432C360 30.6486 411 61.2973 463 73.2162C514 85.7027 566 79.4595 617 67.5405C669 55.0541 720 36.8919 771 30.6486C823 24.4054 874 30.6486 926 27.2432C977 24.4054 1029 11.9189 1054 6.24324L1080 0V147H1054C1029 147 977 147 926 147C874 147 823 147 771 147C720 147 669 147 617 147C566 147 514 147 463 147C411 147 360 147 309 147C257 147 206 147 154 147C103 147 51 147 26 147H0V18.1622Z" fill="#0099FF"/>
</svg>
