<svg width="274" height="72" viewBox="0 0 274 72" fill="none" xmlns="http://www.w3.org/2000/svg">
<g filter="url(#filter0_d)">
<rect x="4" width="258" height="64" rx="30" fill="white"/>
</g>
<path d="M73.668 32.804C75.324 32.732 77.448 32.696 78.744 32.696C79.752 32.696 81.048 32.696 81.048 34.388C81.048 36.368 78.96 41.66 72.12 41.66C65.568 41.66 61.716 36.692 61.716 30.824C61.716 24.992 65.64 19.268 72.48 19.268C75.144 19.268 77.736 20.24 79.32 22.4C79.608 22.796 79.968 22.976 80.328 22.976C80.94 22.976 81.516 22.436 81.516 21.752C81.516 20.24 77.628 17.18 72.552 17.18C63.912 17.18 59.412 24.092 59.412 30.824C59.412 38.816 65.244 44.036 72.048 44.036C80.004 44.036 83.568 37.664 83.568 33.884C83.568 31.904 82.488 30.644 80.22 30.608C78.816 30.572 76.728 30.536 74.928 30.536C73.452 30.536 72.516 30.536 72.516 31.652C72.516 32.228 72.912 32.804 73.632 32.804H73.668ZM102.615 40.472C102.615 39.896 102.075 39.428 101.535 39.428C101.283 39.428 101.031 39.536 100.815 39.752C99.6991 41.012 98.2231 42.128 95.5951 42.128C92.1391 42.128 89.5471 39.716 89.5471 35.792C89.5471 35.288 89.6191 35.144 89.9791 35.144C90.7711 35.144 93.8311 35.18 96.5311 35.18C97.8631 35.18 99.0871 35.18 99.9151 35.144C101.715 35.108 102.543 34.1 102.543 32.732C102.543 30.68 100.383 26.828 95.4511 26.828C91.2031 26.828 87.4231 30.284 87.4231 35.54C87.4231 40.616 90.9871 44.036 95.5591 44.036C100.095 44.036 102.615 41.3 102.615 40.472ZM100.419 32.372C100.419 32.948 100.095 33.344 99.2311 33.38C98.2231 33.416 96.2071 33.416 94.3351 33.416C90.1591 33.416 89.8351 33.416 89.8351 33.056C89.8351 31.724 92.0311 28.628 95.4871 28.628C99.1591 28.628 100.419 31.328 100.419 32.372ZM114.614 29.06C115.298 29.06 115.622 28.592 115.622 28.124C115.622 27.656 115.298 27.188 114.614 27.188H111.41C110.942 27.188 110.87 27.188 110.87 26.792C110.87 26.792 110.942 23.912 110.942 22.868C110.942 22.112 110.438 21.752 109.898 21.752C109.394 21.752 108.854 22.112 108.854 22.796V23.696C108.854 24.956 108.818 26.684 108.818 26.828C108.818 27.152 108.746 27.188 108.422 27.188H106.334C105.65 27.188 105.326 27.656 105.326 28.124C105.326 28.592 105.65 29.06 106.334 29.06H108.458C108.71 29.06 108.818 29.132 108.818 29.492V30.068C108.818 31.832 108.746 36.224 108.746 38.528C108.746 40.112 108.746 44.036 113.354 44.036C114.794 44.036 115.658 43.856 115.658 42.92C115.658 42.452 115.334 41.984 114.794 41.984H114.65C114.29 42.02 113.966 42.056 113.642 42.056C110.834 42.056 110.762 40.148 110.762 37.34C110.762 34.676 110.87 30.968 110.87 29.6C110.87 29.132 110.87 29.06 111.446 29.06H114.614ZM145.732 36.98C145.732 34.532 144.328 31.94 141.052 30.14C139.504 29.276 136.948 28.124 135.328 27.26C133.384 26.216 132.484 24.632 132.484 23.156C132.484 21.032 134.248 19.124 137.2 19.124C139.792 19.124 141.412 20.168 142.312 21.464C142.6 21.896 142.96 22.076 143.32 22.076C143.896 22.076 144.4 21.536 144.4 20.924C144.4 19.772 141.736 17.216 137.236 17.216C132.736 17.216 130.288 20.132 130.288 23.228C130.288 25.46 131.584 27.764 134.248 29.096C136.192 30.068 138.172 31.04 140.008 32.084C142.348 33.416 143.392 35.288 143.392 37.016C143.392 39.716 140.944 41.912 137.488 41.912C134.572 41.912 132.34 40.688 131.296 38.78C131.044 38.348 130.684 38.204 130.324 38.204C129.712 38.204 129.136 38.672 129.136 39.32C129.136 40.328 131.62 44.036 137.452 44.036C142.96 44.036 145.732 40.364 145.732 36.98ZM157.329 29.06C158.013 29.06 158.337 28.592 158.337 28.124C158.337 27.656 158.013 27.188 157.329 27.188H154.125C153.657 27.188 153.585 27.188 153.585 26.792C153.585 26.792 153.657 23.912 153.657 22.868C153.657 22.112 153.153 21.752 152.613 21.752C152.109 21.752 151.569 22.112 151.569 22.796V23.696C151.569 24.956 151.533 26.684 151.533 26.828C151.533 27.152 151.461 27.188 151.137 27.188H149.049C148.365 27.188 148.041 27.656 148.041 28.124C148.041 28.592 148.365 29.06 149.049 29.06H151.173C151.425 29.06 151.533 29.132 151.533 29.492V30.068C151.533 31.832 151.461 36.224 151.461 38.528C151.461 40.112 151.461 44.036 156.069 44.036C157.509 44.036 158.373 43.856 158.373 42.92C158.373 42.452 158.049 41.984 157.509 41.984H157.365C157.005 42.02 156.681 42.056 156.357 42.056C153.549 42.056 153.477 40.148 153.477 37.34C153.477 34.676 153.585 30.968 153.585 29.6C153.585 29.132 153.585 29.06 154.161 29.06H157.329ZM173.442 40.976C173.514 40.976 173.514 41.012 173.55 41.12C174.054 43.1 175.854 43.604 176.07 43.604C176.718 43.604 177.15 42.992 177.15 42.488C177.15 42.2 177.042 41.912 176.754 41.768C175.314 41.012 174.738 40.292 174.738 37.304C174.738 36.116 174.81 34.496 174.918 33.308C174.954 32.948 174.954 32.624 174.954 32.3C174.954 28.268 172.686 26.792 169.338 26.792C166.242 26.792 163.218 28.34 163.218 29.708C163.218 30.284 163.686 30.68 164.226 30.68C164.478 30.68 164.766 30.572 164.982 30.32C165.81 29.42 167.25 28.592 169.194 28.592C172.11 28.592 172.938 30.14 172.938 32.12C172.938 32.3 172.902 32.516 172.902 32.696C172.902 32.948 172.758 33.056 172.326 33.128C170.814 33.38 167.898 33.92 165.666 34.604C163.002 35.432 161.814 37.268 161.814 39.068C161.814 41.552 164.01 44.036 167.646 44.036C169.842 44.036 172.254 42.92 173.334 41.084C173.37 41.012 173.442 40.976 173.442 40.976ZM167.61 42.128C165.198 42.128 163.758 40.616 163.758 39.104C163.758 36.584 166.746 35.864 172.398 34.964H172.506C172.758 34.964 172.866 35.072 172.866 35.36C172.866 35.792 172.83 36.188 172.83 36.584C172.83 39.644 170.922 42.128 167.61 42.128ZM183.903 42.848C183.867 41.084 183.867 39.392 183.867 37.916C183.867 35.864 183.867 34.208 183.903 33.272C183.975 30.5 186.819 28.88 189.375 28.88C190.095 28.88 190.491 28.34 190.491 27.836C190.491 27.332 190.131 26.864 189.375 26.864C188.943 26.864 185.703 27.08 184.119 29.276C184.083 29.348 184.011 29.42 183.975 29.42C183.975 29.42 183.939 29.348 183.939 29.24C183.939 28.736 183.975 28.484 183.975 27.944C183.975 27.26 183.435 26.936 182.895 26.936C182.355 26.936 181.779 27.296 181.779 27.872V27.908C181.815 29.492 181.851 31.4 181.851 33.416C181.851 36.512 181.779 39.896 181.707 42.812V42.848C181.707 43.496 182.283 43.856 182.859 43.856C183.399 43.856 183.903 43.532 183.903 42.884V42.848ZM201.766 29.06C202.45 29.06 202.774 28.592 202.774 28.124C202.774 27.656 202.45 27.188 201.766 27.188H198.562C198.094 27.188 198.022 27.188 198.022 26.792C198.022 26.792 198.094 23.912 198.094 22.868C198.094 22.112 197.59 21.752 197.05 21.752C196.546 21.752 196.006 22.112 196.006 22.796V23.696C196.006 24.956 195.97 26.684 195.97 26.828C195.97 27.152 195.898 27.188 195.574 27.188H193.486C192.802 27.188 192.478 27.656 192.478 28.124C192.478 28.592 192.802 29.06 193.486 29.06H195.61C195.862 29.06 195.97 29.132 195.97 29.492V30.068C195.97 31.832 195.898 36.224 195.898 38.528C195.898 40.112 195.898 44.036 200.506 44.036C201.946 44.036 202.81 43.856 202.81 42.92C202.81 42.452 202.486 41.984 201.946 41.984H201.802C201.442 42.02 201.118 42.056 200.794 42.056C197.986 42.056 197.914 40.148 197.914 37.34C197.914 34.676 198.022 30.968 198.022 29.6C198.022 29.132 198.022 29.06 198.598 29.06H201.766ZM221.443 40.472C221.443 39.896 220.903 39.428 220.363 39.428C220.111 39.428 219.859 39.536 219.643 39.752C218.527 41.012 217.051 42.128 214.423 42.128C210.967 42.128 208.375 39.716 208.375 35.792C208.375 35.288 208.447 35.144 208.807 35.144C209.599 35.144 212.659 35.18 215.359 35.18C216.691 35.18 217.915 35.18 218.743 35.144C220.543 35.108 221.371 34.1 221.371 32.732C221.371 30.68 219.211 26.828 214.279 26.828C210.031 26.828 206.251 30.284 206.251 35.54C206.251 40.616 209.815 44.036 214.387 44.036C218.923 44.036 221.443 41.3 221.443 40.472ZM219.247 32.372C219.247 32.948 218.923 33.344 218.059 33.38C217.051 33.416 215.035 33.416 213.163 33.416C208.987 33.416 208.663 33.416 208.663 33.056C208.663 31.724 210.859 28.628 214.315 28.628C217.987 28.628 219.247 31.328 219.247 32.372ZM243.018 42.56C243.018 42.344 242.982 42.164 242.874 41.948C241.614 39.644 241.614 39.392 241.614 28.052C241.614 23.876 241.65 20.096 241.722 18.548V18.476C241.722 17.756 241.182 17.36 240.606 17.36C240.246 17.36 239.49 17.54 239.526 18.512C239.562 20.06 239.598 24.92 239.598 29.24C239.598 29.744 239.562 29.924 239.526 29.924C239.454 29.924 239.31 29.744 239.13 29.492C237.834 27.836 235.746 26.828 233.442 26.828C228.762 26.828 225.234 30.32 225.234 35.36C225.234 40.58 228.762 43.964 233.442 43.964C235.818 43.964 238.194 42.884 239.742 40.58C239.886 40.4 239.958 40.256 239.994 40.256C240.066 40.256 240.102 40.4 240.174 40.796C240.282 41.48 240.75 42.74 240.93 43.064C241.182 43.496 241.542 43.64 241.902 43.64C242.478 43.64 243.018 43.172 243.018 42.56ZM233.514 41.984C229.914 41.984 227.394 39.464 227.394 35.36C227.394 31.22 229.878 28.7 233.514 28.7C236.934 28.7 239.598 31.328 239.598 35.36C239.598 39.356 236.898 41.984 233.514 41.984Z" fill="#6C6C6C"/>
<path d="M15.9393 30.9393C15.3536 31.5251 15.3536 32.4749 15.9393 33.0607L25.4853 42.6066C26.0711 43.1924 27.0208 43.1924 27.6066 42.6066C28.1924 42.0208 28.1924 41.0711 27.6066 40.4853L19.1213 32L27.6066 23.5147C28.1924 22.9289 28.1924 21.9792 27.6066 21.3934C27.0208 20.8076 26.0711 20.8076 25.4853 21.3934L15.9393 30.9393ZM48 30.5L17 30.5V33.5L48 33.5V30.5Z" fill="#6C6C6C"/>
<defs>
<filter id="filter0_d" x="0" y="0" width="266" height="72" filterUnits="userSpaceOnUse" color-interpolation-filters="sRGB">
<feFlood flood-opacity="0" result="BackgroundImageFix"/>
<feColorMatrix in="SourceAlpha" type="matrix" values="0 0 0 0 0 0 0 0 0 0 0 0 0 0 0 0 0 0 127 0"/>
<feOffset dy="4"/>
<feGaussianBlur stdDeviation="2"/>
<feColorMatrix type="matrix" values="0 0 0 0 0 0 0 0 0 0 0 0 0 0 0 0 0 0 0.25 0"/>
<feBlend mode="normal" in2="BackgroundImageFix" result="effect1_dropShadow"/>
<feBlend mode="normal" in="SourceGraphic" in2="effect1_dropShadow" result="shape"/>
</filter>
</defs>
</svg>
