<svg viewBox="0 0 101 28" fill="none" xmlns="http://www.w3.org/2000/svg">
<path d="M11.501 12.603C12.743 12.549 14.336 12.522 15.308 12.522C16.064 12.522 17.036 12.522 17.036 13.791C17.036 15.276 15.47 19.245 10.34 19.245C5.426 19.245 2.537 15.519 2.537 11.118C2.537 6.744 5.48 2.451 10.61 2.451C12.608 2.451 14.552 3.18 15.74 4.8C15.956 5.097 16.226 5.232 16.496 5.232C16.955 5.232 17.387 4.827 17.387 4.314C17.387 3.18 14.471 0.884998 10.664 0.884998C4.184 0.884998 0.809 6.069 0.809 11.118C0.809 17.112 5.183 21.027 10.286 21.027C16.253 21.027 18.926 16.248 18.926 13.413C18.926 11.928 18.116 10.983 16.415 10.956C15.362 10.929 13.796 10.902 12.446 10.902C11.339 10.902 10.637 10.902 10.637 11.739C10.637 12.171 10.934 12.603 11.474 12.603H11.501ZM32.9953 8.985C32.9953 8.499 32.5633 8.229 32.1583 8.229C31.7533 8.229 31.3753 8.472 31.3753 8.958V8.985C31.4023 10.416 31.4293 11.82 31.4293 13.251C31.4293 14.169 31.4023 15.087 31.3753 16.005C31.3213 18.219 29.2693 19.65 27.3793 19.65C25.8673 19.65 24.4633 18.732 24.3283 16.518C24.3013 16.086 24.2743 15.141 24.2743 14.007C24.2743 12.252 24.3013 10.119 24.3283 8.985V8.958C24.3283 8.472 23.9233 8.202 23.5183 8.202C23.1133 8.202 22.7353 8.445 22.7353 8.985C22.7083 9.552 22.7083 10.335 22.7083 11.172C22.7083 13.224 22.7623 15.735 22.7893 16.707C22.8703 19.677 25.0303 21.027 27.2713 21.027C28.9723 21.027 30.7003 20.271 31.6183 18.867C31.6453 18.813 31.6723 18.813 31.6993 18.813C31.7263 18.813 31.7263 18.84 31.7533 18.948C31.8073 19.407 32.1853 20.838 33.0763 20.838C33.5083 20.838 33.9133 20.514 33.9133 20.082C33.9133 19.92 33.8593 19.731 33.7243 19.542C33.0223 18.543 32.9143 17.301 32.9143 15.573C32.9143 13.305 32.9413 11.091 32.9953 9.012V8.985ZM40.1425 2.181C40.1425 1.155 39.2245 0.938999 38.8195 0.938999C38.2795 0.938999 37.5235 1.344 37.5235 2.181C37.5235 2.343 37.5235 3.504 38.7925 3.504C39.4675 3.504 40.1425 3.018 40.1425 2.181ZM39.6835 20.028C39.6565 18.516 39.6295 16.518 39.6295 14.601C39.6295 12.279 39.6565 10.065 39.6835 8.931V8.904C39.6835 8.418 39.2515 8.175 38.8465 8.175C38.4145 8.175 37.9825 8.445 37.9825 8.931V8.958C38.0095 9.714 38.0095 10.821 38.0095 12.09C38.0095 14.601 37.9825 17.76 37.9825 20.055C37.9825 20.595 38.4145 20.865 38.8195 20.865C39.2515 20.865 39.6835 20.595 39.6835 20.055V20.028ZM50.0678 9.795C50.5808 9.795 50.8238 9.444 50.8238 9.093C50.8238 8.742 50.5808 8.391 50.0678 8.391H47.6648C47.3138 8.391 47.2598 8.391 47.2598 8.094C47.2598 8.094 47.3138 5.934 47.3138 5.151C47.3138 4.584 46.9358 4.314 46.5308 4.314C46.1528 4.314 45.7478 4.584 45.7478 5.097V5.772C45.7478 6.717 45.7208 8.013 45.7208 8.121C45.7208 8.364 45.6668 8.391 45.4238 8.391H43.8578C43.3448 8.391 43.1018 8.742 43.1018 9.093C43.1018 9.444 43.3448 9.795 43.8578 9.795H45.4508C45.6398 9.795 45.7208 9.849 45.7208 10.119V10.551C45.7208 11.874 45.6668 15.168 45.6668 16.896C45.6668 18.084 45.6668 21.027 49.1228 21.027C50.2028 21.027 50.8508 20.892 50.8508 20.19C50.8508 19.839 50.6078 19.488 50.2028 19.488H50.0948C49.8248 19.515 49.5818 19.542 49.3388 19.542C47.2328 19.542 47.1788 18.111 47.1788 16.005C47.1788 14.007 47.2598 11.226 47.2598 10.2C47.2598 9.849 47.2598 9.795 47.6918 9.795H50.0678ZM62.1526 18.732C62.2066 18.732 62.2066 18.759 62.2336 18.84C62.6116 20.325 63.9616 20.703 64.1236 20.703C64.6096 20.703 64.9336 20.244 64.9336 19.866C64.9336 19.65 64.8526 19.434 64.6366 19.326C63.5566 18.759 63.1246 18.219 63.1246 15.978C63.1246 15.087 63.1786 13.872 63.2596 12.981C63.2866 12.711 63.2866 12.468 63.2866 12.225C63.2866 9.201 61.5856 8.094 59.0746 8.094C56.7526 8.094 54.4846 9.255 54.4846 10.281C54.4846 10.713 54.8356 11.01 55.2406 11.01C55.4296 11.01 55.6456 10.929 55.8076 10.74C56.4286 10.065 57.5086 9.444 58.9666 9.444C61.1536 9.444 61.7746 10.605 61.7746 12.09C61.7746 12.225 61.7476 12.387 61.7476 12.522C61.7476 12.711 61.6396 12.792 61.3156 12.846C60.1816 13.035 57.9946 13.44 56.3206 13.953C54.3226 14.574 53.4316 15.951 53.4316 17.301C53.4316 19.164 55.0786 21.027 57.8056 21.027C59.4526 21.027 61.2616 20.19 62.0716 18.813C62.0986 18.759 62.1526 18.732 62.1526 18.732ZM57.7786 19.596C55.9696 19.596 54.8896 18.462 54.8896 17.328C54.8896 15.438 57.1306 14.898 61.3696 14.223H61.4506C61.6396 14.223 61.7206 14.304 61.7206 14.52C61.7206 14.844 61.6936 15.141 61.6936 15.438C61.6936 17.733 60.2626 19.596 57.7786 19.596ZM69.9988 20.136C69.9718 18.813 69.9718 17.544 69.9718 16.437C69.9718 14.898 69.9718 13.656 69.9988 12.954C70.0528 10.875 72.1858 9.66 74.1028 9.66C74.6428 9.66 74.9398 9.255 74.9398 8.877C74.9398 8.499 74.6698 8.148 74.1028 8.148C73.7788 8.148 71.3488 8.31 70.1608 9.957C70.1338 10.011 70.0798 10.065 70.0528 10.065C70.0528 10.065 70.0258 10.011 70.0258 9.93C70.0258 9.552 70.0528 9.363 70.0528 8.958C70.0528 8.445 69.6478 8.202 69.2428 8.202C68.8378 8.202 68.4058 8.472 68.4058 8.904V8.931C68.4328 10.119 68.4598 11.55 68.4598 13.062C68.4598 15.384 68.4058 17.922 68.3518 20.109V20.136C68.3518 20.622 68.7838 20.892 69.2158 20.892C69.6208 20.892 69.9988 20.649 69.9988 20.163V20.136ZM78.5608 19.569C78.5608 19.11 78.1828 18.3 77.2108 18.3C76.6438 18.3 75.8878 18.705 75.8878 19.596C75.8878 20.298 76.2658 20.919 77.1838 20.919C77.9938 20.919 78.5608 20.271 78.5608 19.569ZM85.1908 19.893C85.1638 17.976 85.1368 14.574 85.1368 11.226C85.1368 7.149 85.1638 3.126 85.1908 1.884V1.857C85.1908 1.317 84.7858 1.047 84.3808 1.047C83.9488 1.047 83.5168 1.317 83.5168 1.911V1.938C83.5708 3.045 83.5708 6.582 83.5708 10.308C83.5708 14.007 83.5708 17.949 83.5168 19.893V19.92C83.5168 20.487 83.9218 20.757 84.3538 20.757C84.7858 20.757 85.1908 20.487 85.1908 19.92V19.893ZM94.7424 22.431C96.3894 18.489 98.8464 12.711 100.169 9.471C100.223 9.336 100.25 9.228 100.25 9.12C100.25 8.634 99.8184 8.337 99.3594 8.337C99.0354 8.337 98.6844 8.499 98.5494 8.931C98.5224 9.039 95.0124 18.867 94.5534 18.867C94.4724 18.867 94.3914 18.732 94.2834 18.489C93.5004 16.707 91.1514 10.659 90.4764 8.85C90.3414 8.472 90.0444 8.31 89.7204 8.31C89.3154 8.31 88.9104 8.607 88.9104 9.066C88.9104 9.174 88.9104 9.282 88.9644 9.417C89.6394 11.253 92.6904 18.489 93.5274 20.568C93.6084 20.757 93.6624 20.919 93.6624 21.081C93.6624 21.189 93.6354 21.297 93.5814 21.432C92.1504 24.753 91.2054 26.238 89.0184 26.238C88.3974 26.238 88.1004 26.643 88.1004 27.021C88.1004 27.426 88.3974 27.831 88.9644 27.831C91.9344 27.831 93.3384 25.833 94.7424 22.431Z" fill="white"/>
</svg>
