<svg width="355" height="97" viewBox="0 0 355 97" fill="none" xmlns="http://www.w3.org/2000/svg">
<path d="M38.448 42.144C42.864 41.952 48.528 41.856 51.984 41.856C54.672 41.856 58.128 41.856 58.128 46.368C58.128 51.648 52.56 65.76 34.32 65.76C16.848 65.76 6.576 52.512 6.576 36.864C6.576 21.312 17.04 6.048 35.28 6.048C42.384 6.048 49.296 8.64 53.52 14.4C54.288 15.456 55.248 15.936 56.208 15.936C57.84 15.936 59.376 14.496 59.376 12.672C59.376 8.64 49.008 0.479994 35.472 0.479994C12.432 0.479994 0.432 18.912 0.432 36.864C0.432 58.176 15.984 72.096 34.128 72.096C55.344 72.096 64.848 55.104 64.848 45.024C64.848 39.744 61.968 36.384 55.92 36.288C52.176 36.192 46.608 36.096 41.808 36.096C37.872 36.096 35.376 36.096 35.376 39.072C35.376 40.608 36.432 42.144 38.352 42.144H38.448ZM114.872 29.28C114.872 27.552 113.336 26.592 111.896 26.592C110.456 26.592 109.112 27.456 109.112 29.184V29.28C109.208 34.368 109.304 39.36 109.304 44.448C109.304 47.712 109.208 50.976 109.112 54.24C108.92 62.112 101.624 67.2 94.9043 67.2C89.5283 67.2 84.5363 63.936 84.0563 56.064C83.9603 54.528 83.8643 51.168 83.8643 47.136C83.8643 40.896 83.9603 33.312 84.0563 29.28V29.184C84.0563 27.456 82.6163 26.496 81.1763 26.496C79.7363 26.496 78.3923 27.36 78.3923 29.28C78.2963 31.296 78.2963 34.08 78.2963 37.056C78.2963 44.352 78.4883 53.28 78.5843 56.736C78.8723 67.296 86.5523 72.096 94.5203 72.096C100.568 72.096 106.712 69.408 109.976 64.416C110.072 64.224 110.168 64.224 110.264 64.224C110.36 64.224 110.36 64.32 110.456 64.704C110.648 66.336 111.992 71.424 115.16 71.424C116.696 71.424 118.136 70.272 118.136 68.736C118.136 68.16 117.944 67.488 117.464 66.816C114.968 63.264 114.584 58.848 114.584 52.704C114.584 44.64 114.68 36.768 114.872 29.376V29.28ZM140.285 5.088C140.285 1.44 137.021 0.671997 135.581 0.671997C133.661 0.671997 130.973 2.112 130.973 5.088C130.973 5.664 130.973 9.792 135.484 9.792C137.885 9.792 140.285 8.064 140.285 5.088ZM138.653 68.544C138.557 63.168 138.461 56.064 138.461 49.248C138.461 40.992 138.557 33.12 138.653 29.088V28.992C138.653 27.264 137.117 26.4 135.677 26.4C134.141 26.4 132.605 27.36 132.605 29.088V29.184C132.701 31.872 132.701 35.808 132.701 40.32C132.701 49.248 132.605 60.48 132.605 68.64C132.605 70.56 134.141 71.52 135.581 71.52C137.117 71.52 138.653 70.56 138.653 68.64V68.544ZM175.574 32.16C177.398 32.16 178.262 30.912 178.262 29.664C178.262 28.416 177.398 27.168 175.574 27.168H167.03C165.782 27.168 165.59 27.168 165.59 26.112C165.59 26.112 165.782 18.432 165.782 15.648C165.782 13.632 164.438 12.672 162.998 12.672C161.654 12.672 160.214 13.632 160.214 15.456V17.856C160.214 21.216 160.118 25.824 160.118 26.208C160.118 27.072 159.926 27.168 159.062 27.168H153.494C151.67 27.168 150.806 28.416 150.806 29.664C150.806 30.912 151.67 32.16 153.494 32.16H159.158C159.83 32.16 160.118 32.352 160.118 33.312V34.848C160.118 39.552 159.926 51.264 159.926 57.408C159.926 61.632 159.926 72.096 172.214 72.096C176.054 72.096 178.358 71.616 178.358 69.12C178.358 67.872 177.494 66.624 176.054 66.624H175.67C174.71 66.72 173.846 66.816 172.982 66.816C165.494 66.816 165.302 61.728 165.302 54.24C165.302 47.136 165.59 37.248 165.59 33.6C165.59 32.352 165.59 32.16 167.126 32.16H175.574ZM218.543 63.936C218.735 63.936 218.735 64.032 218.831 64.32C220.175 69.6 224.975 70.944 225.551 70.944C227.279 70.944 228.431 69.312 228.431 67.968C228.431 67.2 228.143 66.432 227.375 66.048C223.535 64.032 221.999 62.112 221.999 54.144C221.999 50.976 222.191 46.656 222.479 43.488C222.575 42.528 222.575 41.664 222.575 40.8C222.575 30.048 216.527 26.112 207.599 26.112C199.343 26.112 191.279 30.24 191.279 33.888C191.279 35.424 192.527 36.48 193.967 36.48C194.639 36.48 195.407 36.192 195.983 35.52C198.191 33.12 202.031 30.912 207.215 30.912C214.991 30.912 217.199 35.04 217.199 40.32C217.199 40.8 217.103 41.376 217.103 41.856C217.103 42.528 216.719 42.816 215.567 43.008C211.535 43.68 203.759 45.12 197.807 46.944C190.703 49.152 187.535 54.048 187.535 58.848C187.535 65.472 193.391 72.096 203.087 72.096C208.943 72.096 215.375 69.12 218.255 64.224C218.351 64.032 218.543 63.936 218.543 63.936ZM202.991 67.008C196.559 67.008 192.719 62.976 192.719 58.944C192.719 52.224 200.687 50.304 215.759 47.904H216.047C216.719 47.904 217.007 48.192 217.007 48.96C217.007 50.112 216.911 51.168 216.911 52.224C216.911 60.384 211.823 67.008 202.991 67.008ZM246.44 68.928C246.344 64.224 246.344 59.712 246.344 55.776C246.344 50.304 246.344 45.888 246.44 43.392C246.632 36 254.216 31.68 261.032 31.68C262.952 31.68 264.008 30.24 264.008 28.896C264.008 27.552 263.048 26.304 261.032 26.304C259.88 26.304 251.24 26.88 247.016 32.736C246.92 32.928 246.728 33.12 246.632 33.12C246.632 33.12 246.536 32.928 246.536 32.64C246.536 31.296 246.632 30.624 246.632 29.184C246.632 27.36 245.192 26.496 243.752 26.496C242.312 26.496 240.776 27.456 240.776 28.992V29.088C240.872 33.312 240.968 38.4 240.968 43.776C240.968 52.032 240.776 61.056 240.584 68.832V68.928C240.584 70.656 242.12 71.616 243.656 71.616C245.096 71.616 246.44 70.752 246.44 69.024V68.928ZM276.883 66.912C276.883 65.28 275.539 62.4 272.083 62.4C270.067 62.4 267.379 63.84 267.379 67.008C267.379 69.504 268.723 71.712 271.987 71.712C274.867 71.712 276.883 69.408 276.883 66.912ZM300.456 68.064C300.36 61.248 300.264 49.152 300.264 37.248C300.264 22.752 300.36 8.44799 300.456 4.032V3.936C300.456 2.016 299.016 1.056 297.576 1.056C296.04 1.056 294.504 2.016 294.504 4.128V4.224C294.696 8.16 294.696 20.736 294.696 33.984C294.696 47.136 294.696 61.152 294.504 68.064V68.16C294.504 70.176 295.944 71.136 297.48 71.136C299.016 71.136 300.456 70.176 300.456 68.16V68.064ZM334.418 77.088C340.274 63.072 349.01 42.528 353.714 31.008C353.906 30.528 354.002 30.144 354.002 29.76C354.002 28.032 352.466 26.976 350.834 26.976C349.682 26.976 348.434 27.552 347.954 29.088C347.858 29.472 335.378 64.416 333.746 64.416C333.458 64.416 333.17 63.936 332.786 63.072C330.002 56.736 321.65 35.232 319.25 28.8C318.77 27.456 317.714 26.88 316.562 26.88C315.122 26.88 313.682 27.936 313.682 29.568C313.682 29.952 313.682 30.336 313.874 30.816C316.273 37.344 327.122 63.072 330.098 70.464C330.386 71.136 330.578 71.712 330.578 72.288C330.578 72.672 330.482 73.056 330.29 73.536C325.202 85.344 321.842 90.624 314.066 90.624C311.858 90.624 310.802 92.064 310.802 93.408C310.802 94.848 311.858 96.288 313.874 96.288C324.434 96.288 329.426 89.184 334.418 77.088Z" fill="white"/>
</svg>
